<svg xmlns="http://www.w3.org/2000/svg" xmlns:xlink="http://www.w3.org/1999/xlink" width="500" zoomAndPan="magnify" viewBox="0 0 375 374.999991" height="500" preserveAspectRatio="xMidYMid meet" version="1.0"><defs><g/><clipPath id="764906b3c1"><path d="M 44.859375 60.554688 L 329.859375 60.554688 L 329.859375 236 L 44.859375 236 Z M 44.859375 60.554688 " clip-rule="nonzero"/></clipPath><clipPath id="f537a1a52d"><path d="M 198 60.554688 L 315 60.554688 L 315 119 L 198 119 Z M 198 60.554688 " clip-rule="nonzero"/></clipPath></defs><g clip-path="url(#764906b3c1)"><path fill="#000000" d="M 315.164062 170.828125 L 315.164062 209.925781 C 315.164062 219.953125 318.671875 222.457031 324.683594 222.960938 L 324.683594 224.214844 C 318.027344 226.511719 310.039062 229.039062 300.542969 231.15625 C 288.21875 233.917969 273.347656 235.996094 255.515625 235.996094 L 255.410156 235.996094 C 236.890625 235.984375 220.171875 232.054688 206.214844 224.644531 C 199.75 221.21875 193.882812 217.046875 188.699219 212.167969 C 188.632812 212.105469 188.5625 212.039062 188.492188 211.96875 C 180.335938 204.238281 173.90625 194.75 169.578125 183.691406 C 166.65625 176.21875 164.695312 168.027344 163.8125 159.167969 C 163.464844 155.644531 163.285156 152.011719 163.285156 148.277344 C 163.285156 144.558594 163.464844 140.945312 163.8125 137.441406 C 163.429688 124.636719 162.351562 113.710938 160.636719 104.503906 C 155.316406 75.816406 143.875 63.816406 128.394531 63.816406 C 123.914062 63.816406 119.777344 64.820312 116.027344 66.941406 C 101.515625 75.148438 92.804688 100.078125 92.804688 148.269531 C 92.804688 188.046875 98.738281 211.871094 108.96875 223.554688 C 114.335938 229.683594 120.894531 232.476562 128.394531 232.476562 C 133.988281 232.476562 139.054688 230.925781 143.492188 227.597656 C 145.742188 225.914062 147.839844 223.769531 149.753906 221.132812 C 152.589844 217.238281 155.042969 212.289062 157.082031 206.179688 C 160.601562 211.894531 164.800781 217.046875 169.59375 221.589844 C 169.664062 221.660156 169.734375 221.722656 169.804688 221.789062 C 170.820312 222.746094 171.859375 223.667969 172.929688 224.574219 C 160.230469 232.042969 145.0625 235.984375 128.398438 235.984375 C 80.527344 235.992188 44.9375 203.40625 44.9375 148.269531 C 44.9375 116.550781 56.714844 92.296875 75.832031 77.421875 C 88.425781 67.613281 104.210938 61.878906 121.910156 60.757812 C 124.042969 60.625 126.203125 60.554688 128.394531 60.554688 C 138.542969 60.554688 148.132812 62.019531 156.953125 64.855469 C 168.164062 68.449219 178.121094 74.261719 186.371094 82.078125 C 187.183594 82.851562 187.988281 83.640625 188.765625 84.449219 C 193.40625 89.269531 197.449219 94.773438 200.796875 100.925781 C 206.417969 111.257812 210.085938 123.417969 211.351562 137.214844 C 211.683594 140.789062 211.851562 144.476562 211.851562 148.269531 C 211.851562 151.859375 211.699219 155.359375 211.402344 158.757812 C 211.734375 166.394531 212.398438 173.394531 213.367188 179.773438 C 218.925781 216.210938 234.519531 232.484375 255.015625 232.484375 L 255.410156 232.484375 C 264.199219 232.441406 269.617188 230.921875 274.3125 226.96875 L 274.3125 170.835938 C 274.3125 165.761719 273.597656 161.992188 272.273438 159.164062 C 269.605469 153.464844 264.472656 151.621094 257.773438 150.785156 L 257.773438 149.53125 L 329.449219 149.53125 L 329.449219 150.785156 C 320.675781 152.03125 315.164062 155.539062 315.164062 170.828125 Z M 315.164062 170.828125 " fill-opacity="1" fill-rule="nonzero"/></g><g clip-path="url(#f537a1a52d)"><path fill="#c0a878" d="M 314.160156 75.597656 L 301.878906 118.453125 L 300.625 118.453125 C 297.21875 110.863281 294.179688 104.304688 291.410156 98.636719 C 286.882812 89.371094 283.066406 82.484375 279.484375 77.402344 C 271.703125 66.375 265.007812 63.820312 254.507812 63.820312 C 247.414062 63.820312 240.734375 65.824219 234.851562 70.199219 C 233.425781 71.257812 232.054688 72.449219 230.730469 73.777344 C 224.074219 80.492188 218.707031 90.816406 215.285156 105.402344 C 213.191406 99.367188 210.539062 93.796875 207.378906 88.71875 C 204.675781 84.390625 201.613281 80.417969 198.214844 76.816406 C 198.398438 76.695312 198.570312 76.570312 198.75 76.449219 C 214.074219 66.050781 233.351562 60.554688 254.515625 60.554688 C 277.570312 60.554688 299.375 65.820312 314.160156 75.597656 Z M 314.160156 75.597656 " fill-opacity="1" fill-rule="nonzero"/></g><g fill="#000000" fill-opacity="1"><g transform="translate(135.640001, 297.562452)"><g><path d="M 5.09375 -40.796875 L 11.84375 -40.796875 L 22.8125 -15.609375 L 22.8125 -5.375 L 21.03125 -5.375 L 11.84375 -28.0625 L 11.84375 0 L 5.09375 0 Z M 36.03125 -40.796875 L 42.796875 -40.796875 L 42.796875 0 L 36.03125 0 L 36.03125 -28.0625 L 26.90625 -5.375 L 25.078125 -5.375 L 25.078125 -15.5 Z M 36.03125 -40.796875 "/></g></g></g><g fill="#000000" fill-opacity="1"><g transform="translate(183.522135, 297.562452)"><g><path d="M 38.53125 0 L 31.671875 0 L 21.09375 -30.5625 L 10.40625 0 L 3.484375 0 L 17.765625 -40.75 L 24.359375 -40.75 Z M 24.75 -12.953125 L 26.34375 -8.46875 L 15.78125 -8.46875 L 17.328125 -12.953125 Z M 24.75 -12.953125 "/></g></g></g><g fill="#000000" fill-opacity="1"><g transform="translate(225.536632, 297.562452)"><g><path d="M 4.984375 -40.796875 L 11.625 -40.796875 L 11.625 0 L 4.984375 0 Z M 32.65625 0 L 25.625 0 L 17.9375 -14.78125 C 17.820312 -14.78125 17.695312 -14.769531 17.5625 -14.75 C 17.4375 -14.726562 17.242188 -14.71875 16.984375 -14.71875 C 16.734375 -14.71875 16.359375 -14.71875 15.859375 -14.71875 C 15.359375 -14.71875 14.703125 -14.71875 13.890625 -14.71875 L 13.890625 -19.59375 L 17.65625 -19.59375 C 18.46875 -19.59375 19.28125 -19.726562 20.09375 -20 C 20.90625 -20.28125 21.644531 -20.734375 22.3125 -21.359375 C 22.976562 -21.992188 23.515625 -22.875 23.921875 -24 C 24.328125 -25.125 24.53125 -26.515625 24.53125 -28.171875 C 24.53125 -28.835938 24.4375 -29.601562 24.25 -30.46875 C 24.0625 -31.34375 23.679688 -32.175781 23.109375 -32.96875 C 22.535156 -33.757812 21.734375 -34.421875 20.703125 -34.953125 C 19.671875 -35.492188 18.304688 -35.765625 16.609375 -35.765625 L 13.890625 -35.765625 L 13.890625 -40.796875 L 16.71875 -40.796875 C 18.445312 -40.796875 20.160156 -40.519531 21.859375 -39.96875 C 23.554688 -39.414062 25.078125 -38.582031 26.421875 -37.46875 C 27.773438 -36.363281 28.867188 -35.023438 29.703125 -33.453125 C 30.535156 -31.890625 30.953125 -30.128906 30.953125 -28.171875 C 30.953125 -25.222656 30.265625 -22.710938 28.890625 -20.640625 C 27.523438 -18.578125 25.679688 -17.046875 23.359375 -16.046875 Z M 32.65625 0 "/></g></g></g><g fill="#000000" fill-opacity="1"><g transform="translate(262.070977, 297.562452)"><g><path d="M 33.875 -40.796875 L 33.875 -36.265625 L 21.703125 -36.265625 L 21.703125 0 L 15 0 L 15 -36.265625 L 2.828125 -36.265625 L 2.828125 -40.796875 Z M 33.875 -40.796875 "/></g></g></g><g fill="#000000" fill-opacity="1"><g transform="translate(298.771387, 297.562452)"><g><path d="M 33.875 -40.796875 L 33.875 -36.265625 L 21.703125 -36.265625 L 21.703125 0 L 15 0 L 15 -36.265625 L 2.828125 -36.265625 L 2.828125 -40.796875 Z M 33.875 -40.796875 "/></g></g></g></svg>