<svg xmlns="http://www.w3.org/2000/svg" xmlns:xlink="http://www.w3.org/1999/xlink" width="500" zoomAndPan="magnify" viewBox="0 0 375 374.999991" height="500" preserveAspectRatio="xMidYMid meet" version="1.2"><defs><clipPath id="a66d67e5ca"><path d="M 56.8125 161 L 70 161 L 70 181.628906 L 56.8125 181.628906 Z M 56.8125 161 "/></clipPath><clipPath id="da8ec43509"><path d="M 60 140 L 318.199219 140 L 318.199219 183 L 60 183 Z M 60 140 "/></clipPath><clipPath id="39c7b32971"><path d="M 150.074219 183.277344 L 229.71875 183.277344 L 229.71875 193.878906 L 150.074219 193.878906 Z M 150.074219 183.277344 "/></clipPath><clipPath id="308c8fe2f8"><path d="M 73.890625 188 L 91.140625 188 L 91.140625 218.167969 L 73.890625 218.167969 Z M 73.890625 188 "/></clipPath></defs><g id="2ebcd184f1"><path style=" stroke:none;fill-rule:nonzero;fill:#00bf63;fill-opacity:1;" d="M 293.695312 171.9375 L 298.964844 177.71875 C 299.589844 178.410156 300.441406 178.847656 301.363281 178.964844 L 308.796875 179.886719 C 308.96875 179.90625 309.09375 180.058594 309.085938 180.234375 C 309.074219 180.40625 308.929688 180.542969 308.757812 180.542969 L 299.027344 180.542969 C 298.921875 180.542969 298.820312 180.488281 298.757812 180.398438 L 293.183594 172.34375 C 293.082031 172.203125 293.113281 172.007812 293.246094 171.898438 C 293.382812 171.792969 293.578125 171.808594 293.695312 171.9375 "/><g clip-rule="nonzero" clip-path="url(#a66d67e5ca)"><path style=" stroke:none;fill-rule:nonzero;fill:#00bf63;fill-opacity:1;" d="M 56.828125 181.332031 L 64.429688 165.457031 C 64.476562 165.363281 64.476562 165.257812 64.433594 165.164062 C 64.390625 165.070312 64.304688 164.996094 64.199219 164.957031 L 63.5 164.710938 C 63.417969 164.679688 63.375 164.59375 63.40625 164.519531 L 64.804688 161.132812 C 64.832031 161.066406 64.910156 161.027344 64.984375 161.039062 L 69.707031 161.65625 C 69.757812 161.664062 69.808594 161.695312 69.828125 161.738281 C 69.855469 161.785156 69.851562 161.835938 69.824219 161.878906 L 57.121094 181.464844 C 57.089844 181.515625 57.035156 181.539062 56.980469 181.539062 C 56.953125 181.539062 56.925781 181.535156 56.902344 181.523438 C 56.828125 181.488281 56.792969 181.40625 56.828125 181.332031 "/></g><g clip-rule="nonzero" clip-path="url(#da8ec43509)"><path style=" stroke:none;fill-rule:nonzero;fill:#d9d9d9;fill-opacity:1;" d="M 60.839844 155.980469 L 61.066406 156.777344 C 61.691406 158.992188 63.941406 160.320312 66.175781 159.800781 C 66.976562 159.617188 67.695312 159.457031 68.09375 159.375 C 68.75 159.261719 69.464844 159.160156 70.222656 159.039062 C 70.984375 158.929688 71.785156 158.785156 72.65625 158.699219 C 73.519531 158.597656 74.433594 158.492188 75.386719 158.382812 C 76.34375 158.277344 77.359375 158.207031 78.410156 158.113281 C 78.9375 158.066406 79.472656 158.019531 80.023438 157.972656 C 80.574219 157.941406 81.136719 157.90625 81.710938 157.871094 C 82.855469 157.808594 84.035156 157.71875 85.265625 157.671875 C 90.175781 157.429688 95.753906 157.351562 101.847656 157.375 C 107.941406 157.417969 114.550781 157.617188 121.546875 157.9375 C 128.539062 158.257812 135.917969 158.695312 143.546875 159.226562 C 147.363281 159.492188 151.242188 159.785156 155.167969 160.09375 C 159.089844 160.414062 163.0625 160.769531 167.066406 161.128906 C 175.070312 161.859375 183.195312 162.65625 191.328125 163.480469 C 195.394531 163.890625 199.457031 164.304688 203.507812 164.714844 C 205.539062 164.914062 207.5625 165.117188 209.582031 165.3125 C 210.59375 165.40625 211.601562 165.5 212.609375 165.59375 C 213.609375 165.6875 214.636719 165.757812 215.640625 165.832031 C 219.671875 166.15625 223.699219 166.332031 227.675781 166.332031 C 231.65625 166.359375 235.59375 166.1875 239.433594 165.875 C 243.273438 165.570312 247.015625 165.167969 250.675781 164.882812 C 254.332031 164.589844 257.921875 164.402344 261.398438 164.308594 C 262.273438 164.296875 263.144531 164.28125 264.011719 164.265625 C 264.441406 164.265625 264.875 164.257812 265.304688 164.25 L 265.628906 164.246094 L 265.929688 164.25 L 266.558594 164.265625 C 266.976562 164.277344 267.386719 164.277344 267.800781 164.296875 C 268.214844 164.328125 268.625 164.355469 269.035156 164.382812 C 269.855469 164.429688 270.667969 164.546875 271.472656 164.636719 C 274.691406 165.046875 277.777344 165.714844 280.707031 166.496094 C 286.558594 168.066406 291.78125 170.058594 296.335938 171.976562 C 300.875 173.9375 304.746094 175.851562 307.898438 177.496094 C 311.046875 179.136719 313.472656 180.519531 315.105469 181.488281 C 315.925781 181.976562 316.546875 182.355469 316.960938 182.609375 C 317.078125 182.679688 317.210938 182.71875 317.34375 182.71875 C 317.585938 182.71875 317.824219 182.59375 317.957031 182.371094 C 318.546875 181.40625 318.226562 180.148438 317.242188 179.589844 C 317.003906 179.453125 316.734375 179.300781 316.445312 179.136719 C 314.761719 178.1875 312.277344 176.824219 309.0625 175.207031 C 305.847656 173.585938 301.894531 171.707031 297.257812 169.78125 C 292.621094 167.855469 287.304688 165.851562 281.292969 164.265625 C 278.285156 163.476562 275.109375 162.800781 271.753906 162.386719 C 270.914062 162.300781 270.070312 162.179688 269.210938 162.132812 C 268.78125 162.105469 268.351562 162.074219 267.914062 162.042969 C 267.480469 162.027344 267.042969 162.019531 266.605469 162.007812 L 265.949219 161.992188 L 265.605469 161.984375 L 265.28125 161.988281 C 264.855469 161.992188 264.425781 161.996094 263.988281 162.003906 C 263.125 162.011719 262.25 162.027344 261.375 162.035156 C 257.820312 162.117188 254.199219 162.300781 250.5 162.582031 C 246.804688 162.859375 243.054688 163.253906 239.257812 163.542969 C 235.460938 163.839844 231.609375 164 227.699219 163.957031 C 223.792969 163.910156 219.839844 163.695312 215.851562 163.332031 C 214.851562 163.242188 213.867188 163.167969 212.859375 163.058594 C 211.855469 162.953125 210.851562 162.851562 209.847656 162.746094 C 207.839844 162.527344 205.820312 162.300781 203.800781 162.082031 C 199.757812 161.625 195.695312 161.167969 191.636719 160.707031 C 175.390625 158.871094 159.117188 157.152344 143.832031 155.851562 C 140.628906 155.578125 137.472656 155.320312 134.363281 155.089844 C 134.097656 155.066406 133.828125 155.042969 133.5625 155.023438 C 133.933594 154.867188 134.339844 154.699219 134.785156 154.523438 C 139.097656 152.796875 146.734375 150.160156 158.625 147.40625 C 171.171875 144.496094 185.46875 145.191406 195.636719 146.367188 C 202.714844 147.191406 209.6875 148.804688 216.394531 151.226562 C 216.425781 151.242188 216.457031 151.25 216.492188 151.261719 C 224.574219 154.1875 231.09375 157.222656 235.578125 159.472656 C 237.820312 160.601562 239.554688 161.535156 240.726562 162.1875 C 241.109375 162.402344 241.460938 162.613281 241.746094 162.785156 C 241.746094 162.785156 241.746094 162.789062 241.75 162.789062 C 241.757812 162.792969 241.761719 162.796875 241.769531 162.800781 C 242.054688 162.960938 242.460938 163.011719 242.519531 163.015625 C 242.519531 163.015625 242.523438 163.015625 242.523438 163.015625 C 243.132812 162.988281 244.296875 162.886719 245.125 162.8125 C 245.167969 162.808594 245.203125 162.804688 245.238281 162.800781 C 245.25 162.800781 245.257812 162.800781 245.269531 162.800781 C 245.878906 162.714844 245.652344 162.484375 245.476562 162.359375 C 245.464844 162.351562 245.457031 162.34375 245.445312 162.339844 C 245.429688 162.332031 245.410156 162.320312 245.394531 162.308594 C 245.382812 162.300781 245.363281 162.292969 245.347656 162.28125 C 245.34375 162.277344 245.34375 162.277344 245.34375 162.277344 C 244.53125 161.777344 243.296875 161.019531 243.226562 160.976562 C 242.917969 160.796875 242.464844 160.53125 241.871094 160.1875 C 240.6875 159.503906 238.9375 158.527344 236.679688 157.351562 C 232.160156 155.007812 225.605469 151.835938 217.429688 148.75 C 213.347656 147.203125 208.859375 145.695312 204.027344 144.371094 C 199.195312 143.046875 194.023438 141.894531 188.59375 141.113281 C 183.167969 140.363281 177.480469 139.992188 171.703125 140.234375 C 170.980469 140.257812 170.257812 140.332031 169.535156 140.375 L 168.445312 140.457031 L 167.898438 140.496094 L 167.363281 140.546875 C 165.9375 140.691406 164.507812 140.832031 163.078125 140.972656 C 160.210938 141.261719 157.328125 141.585938 154.453125 141.894531 C 148.703125 142.542969 142.953125 143.214844 137.304688 143.925781 C 134.476562 144.28125 131.675781 144.632812 128.910156 145 C 126.140625 145.355469 123.410156 145.722656 120.71875 146.089844 C 118.03125 146.460938 115.390625 146.828125 112.808594 147.183594 C 110.21875 147.539062 107.695312 147.925781 105.238281 148.292969 C 104.527344 148.398438 103.824219 148.507812 103.121094 148.613281 C 102.613281 148.695312 102.105469 148.769531 101.605469 148.847656 L 134.296875 154.601562 C 134.296875 154.601562 134.261719 154.597656 134.195312 154.59375 C 134.175781 154.59375 134.152344 154.589844 134.128906 154.589844 C 132.617188 154.46875 121.140625 153.613281 107.105469 153.292969 C 91.460938 152.933594 72.628906 153.242188 60.851562 155.976562 C 60.847656 155.976562 60.84375 155.980469 60.839844 155.980469 "/></g><path style=" stroke:none;fill-rule:nonzero;fill:#d9d9d9;fill-opacity:1;" d="M 213.941406 159.628906 L 213.941406 158.730469 C 213.941406 158.140625 214.265625 157.597656 214.785156 157.3125 L 216.554688 156.347656 C 217.203125 155.992188 217.96875 155.941406 218.65625 156.203125 L 226.132812 159.046875 C 226.550781 159.203125 226.832031 159.613281 226.832031 160.0625 L 226.832031 161.457031 C 226.832031 161.578125 226.789062 161.695312 226.707031 161.785156 L 225.746094 162.867188 C 225.652344 162.972656 225.519531 163.03125 225.375 163.03125 L 221.289062 163.03125 C 221.117188 163.03125 220.957031 162.941406 220.867188 162.792969 C 220.777344 162.644531 220.773438 162.457031 220.855469 162.304688 L 221.113281 161.820312 L 214.792969 160.652344 C 214.300781 160.5625 213.941406 160.132812 213.941406 159.628906 "/><path style=" stroke:none;fill-rule:nonzero;fill:#d9d9d9;fill-opacity:1;" d="M 128.929688 161.570312 L 134.171875 159.785156 C 134.316406 159.734375 134.488281 159.78125 134.574219 159.894531 C 134.660156 160.007812 134.632812 160.15625 134.511719 160.246094 L 131.707031 162.304688 C 131.46875 162.480469 131.40625 162.761719 131.554688 162.992188 L 144.457031 183.519531 L 150.765625 187.796875 C 150.902344 187.886719 150.929688 188.054688 150.824219 188.171875 C 150.761719 188.246094 150.660156 188.285156 150.558594 188.285156 C 150.496094 188.285156 150.433594 188.269531 150.375 188.238281 L 143.464844 184.386719 C 143.421875 184.363281 143.382812 184.328125 143.359375 184.289062 L 128.765625 161.957031 C 128.722656 161.886719 128.714844 161.808594 128.746094 161.730469 C 128.777344 161.660156 128.84375 161.601562 128.929688 161.570312 "/><g clip-rule="nonzero" clip-path="url(#39c7b32971)"><path style=" stroke:none;fill-rule:nonzero;fill:#d9d9d9;fill-opacity:1;" d="M 150.394531 183.40625 C 150.40625 183.332031 150.488281 183.277344 150.578125 183.289062 L 225.921875 191.058594 C 225.976562 191.066406 226.023438 191.09375 226.046875 191.136719 C 226.074219 191.179688 226.070312 191.226562 226.039062 191.269531 L 225.242188 192.363281 L 229.332031 193.613281 C 229.410156 193.636719 229.453125 193.707031 229.433594 193.777344 C 229.414062 193.839844 229.347656 193.878906 229.273438 193.878906 C 229.265625 193.878906 229.257812 193.878906 229.246094 193.878906 L 150.53125 183.558594 C 150.445312 183.550781 150.382812 183.480469 150.394531 183.40625 "/></g><path style=" stroke:none;fill-rule:nonzero;fill:#d9d9d9;fill-opacity:1;" d="M 267.121094 171.171875 C 275.515625 171.171875 283.351562 175.683594 287.574219 182.949219 C 287.699219 183.167969 287.632812 183.429688 287.425781 183.566406 C 287.34375 183.613281 287.257812 183.640625 287.171875 183.640625 C 287.027344 183.640625 286.890625 183.570312 286.800781 183.441406 C 282.359375 177.078125 274.820312 173.125 267.121094 173.125 C 260.1875 173.125 253.019531 176.488281 248.414062 181.902344 C 248.253906 182.089844 247.984375 182.121094 247.785156 181.96875 C 247.589844 181.816406 247.546875 181.550781 247.691406 181.34375 C 252.113281 174.972656 259.378906 171.171875 267.121094 171.171875 "/><path style=" stroke:none;fill-rule:nonzero;fill:#d9d9d9;fill-opacity:1;" d="M 97.21875 166.234375 C 105.609375 166.234375 113.445312 170.75 117.667969 178.011719 C 117.792969 178.230469 117.730469 178.496094 117.519531 178.628906 C 117.441406 178.679688 117.355469 178.703125 117.269531 178.703125 C 117.125 178.703125 116.984375 178.632812 116.894531 178.503906 C 112.457031 172.140625 104.917969 168.191406 97.21875 168.191406 C 90.285156 168.191406 83.117188 171.550781 78.511719 176.964844 C 78.351562 177.152344 78.078125 177.183594 77.882812 177.03125 C 77.6875 176.878906 77.644531 176.613281 77.785156 176.40625 C 82.210938 170.039062 89.472656 166.234375 97.21875 166.234375 "/><path style=" stroke:none;fill-rule:nonzero;fill:#d9d9d9;fill-opacity:1;" d="M 245.125 162.8125 L 245.125 162.816406 C 245.167969 162.8125 245.207031 162.808594 245.238281 162.800781 C 245.203125 162.804688 245.167969 162.808594 245.125 162.8125 "/><g style="fill:#d9d9d9;fill-opacity:1;"><g transform="translate(43.398046, 215.617854)"><path style="stroke:none" d="M 13 0 L 10.375 0 L 10.375 -7.65625 L 0.34375 -16.484375 L 4.296875 -16.484375 L 11.6875 -9.984375 L 19.0625 -16.484375 L 23.046875 -16.484375 L 13 -7.65625 Z M 13 0 "/></g></g><g style="fill:#d9d9d9;fill-opacity:1;"><g transform="translate(74.651571, 215.617854)"><path style="stroke:none" d=""/></g></g><g style="fill:#d9d9d9;fill-opacity:1;"><g transform="translate(88.354485, 215.617854)"><path style="stroke:none" d=""/></g></g><g style="fill:#d9d9d9;fill-opacity:1;"><g transform="translate(102.060923, 215.617854)"><path style="stroke:none" d="M 10.421875 0 L 7.8125 0 L 7.8125 -13.875 L 0.34375 -13.875 L 0.34375 -16.484375 L 17.90625 -16.484375 L 17.90625 -13.875 L 10.421875 -13.875 Z M 10.421875 0 "/></g></g><g style="fill:#d9d9d9;fill-opacity:1;"><g transform="translate(128.163779, 215.617854)"><path style="stroke:none" d="M 21.953125 0 L 19.328125 0 L 19.328125 -4.640625 C 19.328125 -5.003906 19.195312 -5.3125 18.9375 -5.5625 C 18.6875 -5.820312 18.378906 -5.953125 18.015625 -5.953125 L 4.921875 -5.953125 L 4.921875 0 L 2.296875 0 L 2.296875 -16.484375 L 18.015625 -16.484375 C 19.097656 -16.484375 20.023438 -16.097656 20.796875 -15.328125 C 21.566406 -14.566406 21.953125 -13.644531 21.953125 -12.5625 L 21.953125 -9.890625 C 21.953125 -8.878906 21.613281 -8.003906 20.9375 -7.265625 C 21.613281 -6.523438 21.953125 -5.648438 21.953125 -4.640625 Z M 18.015625 -8.578125 C 18.378906 -8.578125 18.6875 -8.703125 18.9375 -8.953125 C 19.195312 -9.210938 19.328125 -9.523438 19.328125 -9.890625 L 19.328125 -12.5625 C 19.328125 -12.925781 19.195312 -13.234375 18.9375 -13.484375 C 18.6875 -13.742188 18.378906 -13.875 18.015625 -13.875 L 4.921875 -13.875 L 4.921875 -8.578125 Z M 18.015625 -8.578125 "/></g></g><g style="fill:#d9d9d9;fill-opacity:1;"><g transform="translate(159.690893, 215.617854)"><path style="stroke:none" d="M 24.046875 0 L 20.875 0 L 18.453125 -3.578125 L 5.9375 -3.578125 L 3.5 0 L 0.34375 0 L 11.5 -16.484375 L 12.890625 -16.484375 Z M 16.6875 -6.203125 L 12.1875 -12.84375 L 7.6875 -6.203125 Z M 16.6875 -6.203125 "/></g></g><g style="fill:#d9d9d9;fill-opacity:1;"><g transform="translate(191.930514, 215.617854)"><path style="stroke:none" d=""/></g></g><g style="fill:#d9d9d9;fill-opacity:1;"><g transform="translate(205.633428, 215.617854)"><path style="stroke:none" d="M 4.921875 0 L 2.296875 0 L 2.296875 -16.484375 L 18.015625 -16.484375 C 19.097656 -16.484375 20.023438 -16.097656 20.796875 -15.328125 C 21.566406 -14.566406 21.953125 -13.644531 21.953125 -12.5625 L 21.953125 -9.890625 C 21.953125 -8.796875 21.566406 -7.863281 20.796875 -7.09375 C 20.023438 -6.332031 19.097656 -5.953125 18.015625 -5.953125 L 4.921875 -5.953125 Z M 18.015625 -8.578125 C 18.378906 -8.578125 18.6875 -8.703125 18.9375 -8.953125 C 19.195312 -9.210938 19.328125 -9.523438 19.328125 -9.890625 L 19.328125 -12.5625 C 19.328125 -12.925781 19.195312 -13.234375 18.9375 -13.484375 C 18.6875 -13.742188 18.378906 -13.875 18.015625 -13.875 L 4.921875 -13.875 L 4.921875 -8.578125 Z M 18.015625 -8.578125 "/></g></g><g style="fill:#d9d9d9;fill-opacity:1;"><g transform="translate(237.160541, 215.617854)"><path style="stroke:none" d="M 24.046875 0 L 20.875 0 L 18.453125 -3.578125 L 5.9375 -3.578125 L 3.5 0 L 0.34375 0 L 11.5 -16.484375 L 12.890625 -16.484375 Z M 16.6875 -6.203125 L 12.1875 -12.84375 L 7.6875 -6.203125 Z M 16.6875 -6.203125 "/></g></g><g style="fill:#d9d9d9;fill-opacity:1;"><g transform="translate(269.400163, 215.617854)"><path style="stroke:none" d="M 21.953125 0 L 19.328125 0 L 19.328125 -4.640625 C 19.328125 -5.003906 19.195312 -5.3125 18.9375 -5.5625 C 18.6875 -5.820312 18.378906 -5.953125 18.015625 -5.953125 L 4.921875 -5.953125 L 4.921875 0 L 2.296875 0 L 2.296875 -16.484375 L 18.015625 -16.484375 C 19.097656 -16.484375 20.023438 -16.097656 20.796875 -15.328125 C 21.566406 -14.566406 21.953125 -13.644531 21.953125 -12.5625 L 21.953125 -9.890625 C 21.953125 -8.878906 21.613281 -8.003906 20.9375 -7.265625 C 21.613281 -6.523438 21.953125 -5.648438 21.953125 -4.640625 Z M 18.015625 -8.578125 C 18.378906 -8.578125 18.6875 -8.703125 18.9375 -8.953125 C 19.195312 -9.210938 19.328125 -9.523438 19.328125 -9.890625 L 19.328125 -12.5625 C 19.328125 -12.925781 19.195312 -13.234375 18.9375 -13.484375 C 18.6875 -13.742188 18.378906 -13.875 18.015625 -13.875 L 4.921875 -13.875 L 4.921875 -8.578125 Z M 18.015625 -8.578125 "/></g></g><g style="fill:#d9d9d9;fill-opacity:1;"><g transform="translate(300.927276, 215.617854)"><path style="stroke:none" d="M 10.421875 0 L 7.8125 0 L 7.8125 -13.875 L 0.34375 -13.875 L 0.34375 -16.484375 L 17.90625 -16.484375 L 17.90625 -13.875 L 10.421875 -13.875 Z M 10.421875 0 "/></g></g><g style="fill:#d9d9d9;fill-opacity:1;"><g transform="translate(327.030132, 215.617854)"><path style="stroke:none" d="M 17.4375 0 L 5.65625 0 C 4.570312 0 3.644531 -0.378906 2.875 -1.140625 C 2.101562 -1.910156 1.71875 -2.84375 1.71875 -3.9375 L 4.34375 -3.9375 C 4.34375 -3.570312 4.46875 -3.257812 4.71875 -3 C 4.976562 -2.75 5.289062 -2.625 5.65625 -2.625 L 17.4375 -2.625 C 17.800781 -2.625 18.109375 -2.75 18.359375 -3 C 18.617188 -3.257812 18.75 -3.570312 18.75 -3.9375 L 18.75 -5.625 C 18.75 -5.988281 18.617188 -6.296875 18.359375 -6.546875 C 18.109375 -6.804688 17.800781 -6.9375 17.4375 -6.9375 L 5.65625 -6.9375 C 4.570312 -6.9375 3.644531 -7.320312 2.875 -8.09375 C 2.101562 -8.863281 1.71875 -9.785156 1.71875 -10.859375 L 1.71875 -12.5625 C 1.71875 -13.644531 2.101562 -14.566406 2.875 -15.328125 C 3.644531 -16.097656 4.570312 -16.484375 5.65625 -16.484375 L 17.4375 -16.484375 C 18.519531 -16.484375 19.445312 -16.097656 20.21875 -15.328125 C 20.988281 -14.566406 21.375 -13.644531 21.375 -12.5625 L 18.75 -12.5625 C 18.75 -12.925781 18.617188 -13.234375 18.359375 -13.484375 C 18.109375 -13.734375 17.800781 -13.859375 17.4375 -13.859375 L 5.65625 -13.859375 C 5.289062 -13.859375 4.976562 -13.734375 4.71875 -13.484375 C 4.46875 -13.234375 4.34375 -12.925781 4.34375 -12.5625 L 4.34375 -10.859375 C 4.34375 -10.503906 4.46875 -10.195312 4.71875 -9.9375 C 4.976562 -9.675781 5.289062 -9.546875 5.65625 -9.546875 L 17.4375 -9.546875 C 18.519531 -9.546875 19.445312 -9.160156 20.21875 -8.390625 C 20.988281 -7.628906 21.375 -6.707031 21.375 -5.625 L 21.375 -3.9375 C 21.375 -2.84375 20.988281 -1.910156 20.21875 -1.140625 C 19.445312 -0.378906 18.519531 0 17.4375 0 Z M 17.4375 0 "/></g></g><g clip-rule="nonzero" clip-path="url(#308c8fe2f8)"><path style=" stroke:none;fill-rule:nonzero;fill:#00bf63;fill-opacity:1;" d="M 88.144531 207.90625 L 88.144531 211.203125 L 75.996094 211.203125 L 75.996094 207.90625 C 75.996094 204.558594 78.722656 201.832031 82.070312 201.832031 C 85.417969 201.832031 88.144531 204.558594 88.144531 207.90625 Z M 87.914062 195.429688 L 84.21875 195.429688 C 82.4375 195.429688 80.992188 196.875 80.992188 198.652344 L 80.992188 199.796875 C 76.988281 200.328125 73.890625 203.761719 73.890625 207.90625 L 73.890625 213.308594 L 76.972656 213.308594 L 76.972656 218.164062 L 79.082031 218.164062 L 79.082031 213.308594 L 85.058594 213.308594 L 85.058594 218.164062 L 87.167969 218.164062 L 87.167969 213.308594 L 90.25 213.308594 L 90.25 207.90625 C 90.25 203.746094 87.125 200.296875 83.097656 199.789062 L 83.097656 198.652344 C 83.097656 198.039062 83.601562 197.535156 84.21875 197.535156 L 87.914062 197.535156 C 89.691406 197.535156 91.136719 196.089844 91.136719 194.3125 C 91.136719 192.53125 89.691406 191.085938 87.914062 191.085938 L 79.101562 191.085938 C 78.484375 191.085938 77.984375 190.585938 77.984375 189.96875 L 77.984375 188.039062 L 75.878906 188.039062 L 75.878906 189.96875 C 75.878906 191.746094 77.324219 193.191406 79.101562 193.191406 L 87.914062 193.191406 C 88.527344 193.191406 89.03125 193.695312 89.03125 194.3125 C 89.03125 194.925781 88.527344 195.429688 87.914062 195.429688 "/></g><path style=" stroke:none;fill-rule:nonzero;fill:#00bf63;fill-opacity:1;" d="M 80.210938 206.316406 L 79.847656 206.796875 L 80.527344 207.035156 L 81.964844 207.542969 L 81.011719 209.386719 L 83.128906 210.175781 L 83.804688 207.378906 L 84.039062 206.414062 L 83.238281 206.335938 L 81.339844 206.144531 L 82.683594 203.046875 L 80.210938 206.316406 "/></g></svg>